<svg width="433" height="78" viewBox="0 0 433 78" fill="none" xmlns="http://www.w3.org/2000/svg">
<path d="M71.536 62L88.048 15.92H96.496L81.328 62H71.536ZM105.328 62L90.224 15.92H99.056L115.568 62H105.328ZM80.24 44.144H106.096V51.824H80.24V44.144ZM142.257 62V54.768L142.897 54.896C142.47 57.2427 141.19 59.12 139.057 60.528C136.966 61.936 134.449 62.64 131.505 62.64C128.518 62.64 125.915 61.9573 123.697 60.592C121.521 59.184 119.835 57.2213 118.641 54.704C117.446 52.1867 116.849 49.2213 116.849 45.808C116.849 42.352 117.467 39.344 118.705 36.784C119.942 34.224 121.67 32.24 123.889 30.832C126.15 29.424 128.774 28.72 131.76 28.72C134.875 28.72 137.393 29.4453 139.313 30.896C141.275 32.3467 142.427 34.3307 142.769 36.848L142.065 36.912V15.92H151.665V62H142.257ZM134.577 54.96C136.838 54.96 138.673 54.1707 140.081 52.592C141.489 50.9707 142.193 48.6667 142.193 45.68C142.193 42.6933 141.467 40.4107 140.017 38.832C138.609 37.2107 136.753 36.4 134.449 36.4C132.23 36.4 130.395 37.2107 128.945 38.832C127.537 40.4533 126.833 42.7573 126.833 45.744C126.833 48.7307 127.537 51.0133 128.945 52.592C130.395 54.1707 132.273 54.96 134.577 54.96ZM174.828 62.64C171.244 62.64 168.087 61.936 165.356 60.528C162.668 59.0773 160.556 57.072 159.02 54.512C157.527 51.9093 156.78 48.9227 156.78 45.552C156.78 42.1813 157.527 39.2373 159.02 36.72C160.556 34.2027 162.668 32.24 165.356 30.832C168.087 29.424 171.244 28.72 174.828 28.72C178.455 28.72 181.612 29.424 184.3 30.832C187.031 32.24 189.143 34.2027 190.636 36.72C192.129 39.2373 192.876 42.1813 192.876 45.552C192.876 48.9227 192.108 51.9093 190.572 54.512C189.079 57.072 186.967 59.0773 184.236 60.528C181.548 61.936 178.412 62.64 174.828 62.64ZM174.828 55.088C176.321 55.088 177.665 54.704 178.86 53.936C180.097 53.168 181.079 52.08 181.804 50.672C182.529 49.2213 182.892 47.4933 182.892 45.488C182.892 42.544 182.103 40.2827 180.524 38.704C178.988 37.0827 177.089 36.272 174.828 36.272C172.567 36.272 170.647 37.0827 169.068 38.704C167.532 40.3253 166.764 42.5867 166.764 45.488C166.764 47.4933 167.127 49.2213 167.852 50.672C168.577 52.08 169.537 53.168 170.732 53.936C171.969 54.704 173.335 55.088 174.828 55.088ZM197.965 62V29.36H207.373V37.04H207.565V62H197.965ZM220.685 62V41.776C220.685 39.984 220.216 38.64 219.277 37.744C218.381 36.848 217.058 36.4 215.309 36.4C213.816 36.4 212.472 36.7413 211.277 37.424C210.125 38.1067 209.208 39.0453 208.525 40.24C207.885 41.4347 207.565 42.8427 207.565 44.464L206.733 36.592C207.8 34.2027 209.357 32.304 211.405 30.896C213.496 29.4453 216.056 28.72 219.085 28.72C222.712 28.72 225.485 29.744 227.405 31.792C229.325 33.7973 230.285 36.5067 230.285 39.92V62H220.685ZM237.215 62V29.36H246.815V62H237.215ZM236.895 25.008V14.64H247.135V25.008H236.895ZM267.462 62.64C262.683 62.64 258.886 61.68 256.07 59.76C253.254 57.84 251.718 55.1947 251.462 51.824H260.038C260.251 53.2747 260.976 54.384 262.214 55.152C263.494 55.8773 265.243 56.24 267.462 56.24C269.467 56.24 270.918 55.9627 271.814 55.408C272.752 54.8107 273.222 53.9787 273.222 52.912C273.222 52.1013 272.944 51.4827 272.39 51.056C271.878 50.5867 270.918 50.2027 269.51 49.904L264.262 48.816C260.379 48.0053 257.52 46.7893 255.686 45.168C253.851 43.504 252.934 41.3707 252.934 38.768C252.934 35.6107 254.15 33.1573 256.582 31.408C259.014 29.616 262.406 28.72 266.758 28.72C271.067 28.72 274.502 29.5947 277.062 31.344C279.622 33.0507 281.03 35.44 281.286 38.512H272.71C272.539 37.4027 271.942 36.5707 270.918 36.016C269.894 35.4187 268.443 35.12 266.566 35.12C264.859 35.12 263.579 35.376 262.726 35.888C261.915 36.3573 261.51 37.04 261.51 37.936C261.51 38.704 261.851 39.3227 262.534 39.792C263.216 40.2187 264.347 40.6027 265.926 40.944L271.814 42.16C275.099 42.8427 277.574 44.1227 279.238 46C280.944 47.8347 281.798 50.0107 281.798 52.528C281.798 55.728 280.539 58.224 278.022 60.016C275.547 61.7653 272.027 62.64 267.462 62.64ZM303.451 62.64C301.83 62.64 300.272 62.512 298.779 62.256C297.286 62.0427 296.198 61.7653 295.515 61.424V53.872C296.283 54.1707 297.2 54.4267 298.267 54.64C299.334 54.8533 300.422 54.96 301.531 54.96C303.92 54.96 305.648 54.576 306.715 53.808C307.824 52.9973 308.379 51.5467 308.379 49.456V15.92H318.235V49.904C318.235 54.1707 316.976 57.3707 314.459 59.504C311.942 61.5947 308.272 62.64 303.451 62.64ZM340.766 62.64C337.182 62.64 334.024 61.936 331.294 60.528C328.606 59.0773 326.494 57.072 324.958 54.512C323.464 51.9093 322.718 48.9227 322.718 45.552C322.718 42.1813 323.464 39.2373 324.958 36.72C326.494 34.2027 328.606 32.24 331.294 30.832C334.024 29.424 337.182 28.72 340.766 28.72C344.392 28.72 347.55 29.424 350.238 30.832C352.968 32.24 355.08 34.2027 356.574 36.72C358.067 39.2373 358.814 42.1813 358.814 45.552C358.814 48.9227 358.046 51.9093 356.51 54.512C355.016 57.072 352.904 59.0773 350.174 60.528C347.486 61.936 344.35 62.64 340.766 62.64ZM340.766 55.088C342.259 55.088 343.603 54.704 344.798 53.936C346.035 53.168 347.016 52.08 347.742 50.672C348.467 49.2213 348.83 47.4933 348.83 45.488C348.83 42.544 348.04 40.2827 346.462 38.704C344.926 37.0827 343.027 36.272 340.766 36.272C338.504 36.272 336.584 37.0827 335.006 38.704C333.47 40.3253 332.702 42.5867 332.702 45.488C332.702 47.4933 333.064 49.2213 333.79 50.672C334.515 52.08 335.475 53.168 336.67 53.936C337.907 54.704 339.272 55.088 340.766 55.088ZM383.807 62.64C380.692 62.64 378.153 61.9147 376.191 60.464C374.271 59.0133 373.14 57.0293 372.799 54.512L373.311 54.448V62H363.903V15.92H373.503V36.592L372.927 36.464C373.396 34.0747 374.633 32.1973 376.639 30.832C378.687 29.424 381.247 28.72 384.319 28.72C387.263 28.72 389.801 29.424 391.935 30.832C394.111 32.1973 395.775 34.1387 396.927 36.656C398.121 39.1733 398.719 42.1387 398.719 45.552C398.719 49.008 398.1 52.016 396.863 54.576C395.625 57.136 393.897 59.12 391.679 60.528C389.46 61.936 386.836 62.64 383.807 62.64ZM381.119 54.96C383.38 54.96 385.215 54.1493 386.623 52.528C388.031 50.9067 388.735 48.6027 388.735 45.616C388.735 42.6293 388.009 40.3467 386.559 38.768C385.151 37.1893 383.295 36.4 380.991 36.4C378.772 36.4 376.937 37.2107 375.487 38.832C374.079 40.4107 373.375 42.6933 373.375 45.68C373.375 48.6667 374.079 50.9707 375.487 52.592C376.937 54.1707 378.815 54.96 381.119 54.96ZM417.462 62.64C412.683 62.64 408.886 61.68 406.07 59.76C403.254 57.84 401.718 55.1947 401.462 51.824H410.038C410.251 53.2747 410.976 54.384 412.214 55.152C413.494 55.8773 415.243 56.24 417.462 56.24C419.467 56.24 420.918 55.9627 421.814 55.408C422.752 54.8107 423.222 53.9787 423.222 52.912C423.222 52.1013 422.944 51.4827 422.39 51.056C421.878 50.5867 420.918 50.2027 419.51 49.904L414.262 48.816C410.379 48.0053 407.52 46.7893 405.686 45.168C403.851 43.504 402.934 41.3707 402.934 38.768C402.934 35.6107 404.15 33.1573 406.582 31.408C409.014 29.616 412.406 28.72 416.758 28.72C421.067 28.72 424.502 29.5947 427.062 31.344C429.622 33.0507 431.03 35.44 431.286 38.512H422.71C422.539 37.4027 421.942 36.5707 420.918 36.016C419.894 35.4187 418.443 35.12 416.566 35.12C414.859 35.12 413.579 35.376 412.726 35.888C411.915 36.3573 411.51 37.04 411.51 37.936C411.51 38.704 411.851 39.3227 412.534 39.792C413.216 40.2187 414.347 40.6027 415.926 40.944L421.814 42.16C425.099 42.8427 427.574 44.1227 429.238 46C430.944 47.8347 431.798 50.0107 431.798 52.528C431.798 55.728 430.539 58.224 428.022 60.016C425.547 61.7653 422.027 62.64 417.462 62.64Z" fill="white"/>
<rect y="14" width="50" height="50" fill="#EDCA2E"/>
<g clip-path="url(#clip0_10356_6100)">
<path d="M15.8916 44.1262C12.4562 42.2891 10.3223 38.7314 10.3223 34.8435C10.3223 29.2658 14.6721 24.6453 20.2248 24.3235L20.2747 25.1773C15.1732 25.4718 11.1773 29.7195 11.1773 34.8435C11.1773 38.4155 13.1378 41.6847 16.2954 43.3733L15.8916 44.1262ZM42.0523 40.781C42.0523 34.9801 37.332 30.2598 31.531 30.2598C30.0181 30.2598 28.5611 30.5721 27.199 31.1884L27.5517 31.9674C28.801 31.4021 30.1405 31.1148 31.531 31.1148C36.8605 31.1148 41.1973 35.4515 41.1973 40.781C41.1973 41.6776 41.0738 42.5658 40.8315 43.4232L41.6545 43.6548C41.9181 42.7238 42.0523 41.756 42.0523 40.781ZM32.5511 46.1497L31.6973 46.101C31.4016 51.2025 27.1551 55.1973 22.0298 55.1973C18.9174 55.1973 15.9771 53.6856 14.1638 51.1503L13.468 51.649C15.4416 54.4064 18.6419 56.0535 22.0298 56.0535C27.6075 56.0523 32.2293 51.7025 32.5511 46.1497ZM27.8023 24.7498C27.8023 23.2048 26.5447 21.9473 24.9998 21.9473C23.4548 21.9473 22.1973 23.2048 22.1973 24.7498C22.1973 26.2947 23.4548 27.5523 24.9998 27.5523C26.5459 27.5523 27.8023 26.2947 27.8023 24.7498ZM26.9473 24.7498C26.9473 25.8233 26.0745 26.6973 24.9998 26.6973C23.9251 26.6973 23.0523 25.8233 23.0523 24.7498C23.0523 23.6763 23.9263 22.8023 24.9998 22.8023C26.0733 22.8023 26.9473 23.6763 26.9473 24.7498ZM42.0523 48.4998C42.0523 46.9536 40.7947 45.6973 39.2498 45.6973C37.7048 45.6973 36.4473 46.9548 36.4473 48.4998C36.4473 50.0447 37.7048 51.3023 39.2498 51.3023C40.7947 51.3023 42.0523 50.0459 42.0523 48.4998ZM41.1973 48.4998C41.1973 49.5733 40.3245 50.4473 39.2498 50.4473C38.1751 50.4473 37.3023 49.5745 37.3023 48.4998C37.3023 47.4251 38.1751 46.5523 39.2498 46.5523C40.3245 46.5523 41.1973 47.4263 41.1973 48.4998ZM13.5523 47.3123C13.5523 45.7661 12.2947 44.5098 10.7498 44.5098C9.20483 44.5098 7.94727 45.7661 7.94727 47.3123C7.94727 48.8584 9.20483 50.1148 10.7498 50.1148C12.2947 50.1148 13.5523 48.8584 13.5523 47.3123ZM12.6973 47.3123C12.6973 48.3858 11.8233 49.2598 10.7498 49.2598C9.67627 49.2598 8.80227 48.3858 8.80227 47.3123C8.80227 46.2388 9.67627 45.3648 10.7498 45.3648C11.8233 45.3648 12.6973 46.2388 12.6973 47.3123ZM26.1338 46.0832L30.8957 41.3213C31.5203 40.6967 31.5203 39.679 30.8957 39.0532L26.1338 34.2913C25.5092 33.6667 24.4915 33.6667 23.8669 34.2913L19.105 39.0532C18.4792 39.6778 18.4792 40.6955 19.105 41.3213L23.8669 46.0832C24.1792 46.3955 24.5901 46.5523 25.001 46.5523C25.4118 46.5523 25.8203 46.3955 26.1338 46.0832ZM25.5294 34.8958L30.2901 39.6576C30.5822 39.9498 30.5822 40.4248 30.2901 40.7157L25.5294 45.4776C25.2373 45.7697 24.7623 45.7697 24.4701 45.4776L19.7083 40.7157C19.4161 40.4248 19.4161 39.9498 19.7083 39.6576L24.4701 34.8958C24.6162 34.7497 24.8074 34.6773 24.9998 34.6773C25.1921 34.6773 25.3833 34.7509 25.5294 34.8958Z" fill="white" fill-opacity="0.5" stroke="white" stroke-width="1.5"/>
</g>
<defs>
<clipPath id="clip0_10356_6100">
<rect width="38" height="38" fill="white" transform="translate(6 20)"/>
</clipPath>
</defs>
</svg>
